<svg xmlns="http://www.w3.org/2000/svg" width="146.317" height="175.045" viewBox="0 0 146.317 175.045">
  <g id="Grupo_111" data-name="Grupo 111" transform="translate(-442.133 -71.89)">
    <g id="Grupo_110" data-name="Grupo 110" transform="translate(442.133 71.89)">
      <path id="Trazado_135" data-name="Trazado 135" d="M1009.441,270.511a1.906,1.906,0,1,0,1.909,1.907,1.91,1.91,0,0,0-1.909-1.907" transform="translate(-936.443 -245.538)" fill="#fff"/>
      <path id="Trazado_136" data-name="Trazado 136" d="M1009.441,220.847a1.908,1.908,0,1,0,1.909,1.908,1.912,1.912,0,0,0-1.909-1.908" transform="translate(-936.443 -202.119)" fill="#fff"/>
      <path id="Trazado_137" data-name="Trazado 137" d="M1009.441,171.215a1.907,1.907,0,1,0,1.909,1.907,1.91,1.91,0,0,0-1.909-1.907" transform="translate(-936.443 -158.727)" fill="#fff"/>
      <path id="Trazado_138" data-name="Trazado 138" d="M1009.441,121.562a1.908,1.908,0,1,0,1.909,1.908,1.91,1.91,0,0,0-1.909-1.908" transform="translate(-936.443 -115.317)" fill="#fff"/>
      <path id="Trazado_139" data-name="Trazado 139" d="M1009.441,71.89a1.909,1.909,0,1,0,1.909,1.91,1.912,1.912,0,0,0-1.909-1.91" transform="translate(-936.443 -71.89)" fill="#fff"/>
      <path id="Trazado_140" data-name="Trazado 140" d="M1009.441,320.163a1.907,1.907,0,1,0,1.909,1.908,1.911,1.911,0,0,0-1.909-1.908" transform="translate(-936.443 -288.947)" fill="#fff"/>
      <path id="Trazado_141" data-name="Trazado 141" d="M1009.441,767a1.908,1.908,0,1,0,1.909,1.906,1.912,1.912,0,0,0-1.909-1.906" transform="translate(-936.443 -679.603)" fill="#fff"/>
      <path id="Trazado_142" data-name="Trazado 142" d="M1009.441,1015.261a1.909,1.909,0,1,0,1.909,1.908,1.91,1.91,0,0,0-1.909-1.908" transform="translate(-936.443 -896.65)" fill="#fff"/>
      <path id="Trazado_143" data-name="Trazado 143" d="M1009.441,965.629a1.906,1.906,0,1,0,1.909,1.907,1.909,1.909,0,0,0-1.909-1.907" transform="translate(-936.443 -853.259)" fill="#fff"/>
      <path id="Trazado_144" data-name="Trazado 144" d="M1009.441,915.964a1.908,1.908,0,1,0,1.909,1.907,1.909,1.909,0,0,0-1.909-1.907" transform="translate(-936.443 -809.838)" fill="#fff"/>
      <path id="Trazado_145" data-name="Trazado 145" d="M1009.441,866.317a1.908,1.908,0,1,0,1.909,1.909,1.91,1.91,0,0,0-1.909-1.909" transform="translate(-936.443 -766.433)" fill="#fff"/>
      <path id="Trazado_146" data-name="Trazado 146" d="M1009.441,816.652a1.909,1.909,0,1,0,1.909,1.911,1.912,1.912,0,0,0-1.909-1.911" transform="translate(-936.443 -723.013)" fill="#fff"/>
      <path id="Trazado_147" data-name="Trazado 147" d="M734.462,545.5a1.91,1.91,0,1,0,1.912-1.909,1.91,1.91,0,0,0-1.912,1.909" transform="translate(-697.707 -484.281)" fill="#fff"/>
      <path id="Trazado_148" data-name="Trazado 148" d="M684.814,545.5a1.908,1.908,0,1,0,1.907-1.909,1.911,1.911,0,0,0-1.907,1.909" transform="translate(-654.302 -484.281)" fill="#fff"/>
      <path id="Trazado_149" data-name="Trazado 149" d="M635.182,545.5a1.906,1.906,0,1,0,1.9-1.909,1.907,1.907,0,0,0-1.9,1.909" transform="translate(-610.91 -484.281)" fill="#fff"/>
      <path id="Trazado_150" data-name="Trazado 150" d="M585.525,545.5a1.908,1.908,0,1,0,1.908-1.909,1.909,1.909,0,0,0-1.908,1.909" transform="translate(-567.496 -484.281)" fill="#fff"/>
      <path id="Trazado_151" data-name="Trazado 151" d="M539.689,545.5a1.909,1.909,0,1,0-1.91,1.9,1.914,1.914,0,0,0,1.91-1.9" transform="translate(-524.084 -484.281)" fill="#fff"/>
      <path id="Trazado_152" data-name="Trazado 152" d="M787.943,545.5a1.908,1.908,0,1,0-1.91,1.9,1.913,1.913,0,0,0,1.91-1.9" transform="translate(-741.127 -484.281)" fill="#fff"/>
      <path id="Trazado_153" data-name="Trazado 153" d="M1232.89,543.576a1.908,1.908,0,1,0,1.906,1.909,1.909,1.909,0,0,0-1.906-1.909" transform="translate(-1131.8 -484.271)" fill="#fff"/>
      <path id="Trazado_154" data-name="Trazado 154" d="M1481.145,543.576a1.908,1.908,0,1,0,1.909,1.909,1.909,1.909,0,0,0-1.909-1.909" transform="translate(-1348.844 -484.271)" fill="#fff"/>
      <path id="Trazado_155" data-name="Trazado 155" d="M1431.484,543.576a1.908,1.908,0,1,0,1.907,1.909,1.908,1.908,0,0,0-1.907-1.909" transform="translate(-1305.424 -484.271)" fill="#fff"/>
      <path id="Trazado_156" data-name="Trazado 156" d="M1383.744,545.5a1.908,1.908,0,1,0-1.906,1.9,1.912,1.912,0,0,0,1.906-1.9" transform="translate(-1262.018 -484.281)" fill="#fff"/>
      <path id="Trazado_157" data-name="Trazado 157" d="M1332.183,543.576a1.908,1.908,0,1,0,1.91,1.909,1.908,1.908,0,0,0-1.91-1.909" transform="translate(-1218.613 -484.271)" fill="#fff"/>
      <path id="Trazado_158" data-name="Trazado 158" d="M1282.549,543.576a1.908,1.908,0,1,0,1.909,1.909,1.907,1.907,0,0,0-1.909-1.909" transform="translate(-1175.221 -484.271)" fill="#fff"/>
      <path id="Trazado_159" data-name="Trazado 159" d="M815.033,353.75a1.9,1.9,0,0,0,2.693,0,1.906,1.906,0,0,0-1.345-3.255,1.874,1.874,0,0,0-1.347.558,1.9,1.9,0,0,0,0,2.7" transform="translate(-767.658 -315.466)" fill="#fff"/>
      <path id="Trazado_160" data-name="Trazado 160" d="M781.264,315.407a1.905,1.905,0,1,0,0,3.81,1.909,1.909,0,0,0,1.91-1.9,1.9,1.9,0,0,0-1.91-1.905" transform="translate(-736.959 -284.789)" fill="#fff"/>
      <path id="Trazado_161" data-name="Trazado 161" d="M746.15,284.1a1.9,1.9,0,1,0-1.35-.557,1.9,1.9,0,0,0,1.35.557" transform="translate(-706.259 -254.086)" fill="#fff"/>
      <path id="Trazado_162" data-name="Trazado 162" d="M711.035,248.993a1.9,1.9,0,0,0,1.351-3.253,1.909,1.909,0,0,0-2.7,0,1.9,1.9,0,0,0,1.349,3.253" transform="translate(-675.558 -223.392)" fill="#fff"/>
      <path id="Trazado_163" data-name="Trazado 163" d="M675.933,213.874h0a1.892,1.892,0,0,0,1.348-.56,1.9,1.9,0,0,0,0-2.694,1.905,1.905,0,1,0-1.348,3.254" transform="translate(-644.871 -192.688)" fill="#fff"/>
      <path id="Trazado_164" data-name="Trazado 164" d="M851.479,385.615a1.907,1.907,0,1,0,1.348,3.253,1.9,1.9,0,0,0-1.348-3.253" transform="translate(-798.344 -346.17)" fill="#fff"/>
      <path id="Trazado_165" data-name="Trazado 165" d="M1167.452,705.375a1.906,1.906,0,1,0-1.351-.557,1.912,1.912,0,0,0,1.351.557" transform="translate(-1074.592 -622.391)" fill="#fff"/>
      <path id="Trazado_166" data-name="Trazado 166" d="M1342.992,877.111a1.907,1.907,0,1,0,1.353,3.258,1.918,1.918,0,0,0,0-2.7,1.894,1.894,0,0,0-1.353-.558" transform="translate(-1228.064 -775.87)" fill="#fff"/>
      <path id="Trazado_167" data-name="Trazado 167" d="M1307.877,842a1.88,1.88,0,0,0-1.346.559,1.906,1.906,0,1,0,2.7,0,1.881,1.881,0,0,0-1.351-.559" transform="translate(-1197.362 -745.176)" fill="#fff"/>
      <path id="Trazado_168" data-name="Trazado 168" d="M1272.771,806.9a1.908,1.908,0,1,0,1.349.558,1.891,1.891,0,0,0-1.349-.558" transform="translate(-1166.665 -714.482)" fill="#fff"/>
      <path id="Trazado_169" data-name="Trazado 169" d="M1237.669,775.6a1.907,1.907,0,1,0-1.352-.56,1.9,1.9,0,0,0,1.352.56" transform="translate(-1135.976 -683.789)" fill="#fff"/>
      <path id="Trazado_170" data-name="Trazado 170" d="M1203.865,737.251a1.908,1.908,0,1,0-2.7,2.7,1.909,1.909,0,0,0,2.7,0,1.918,1.918,0,0,0,0-2.7" transform="translate(-1105.24 -653.109)" fill="#fff"/>
      <path id="Trazado_171" data-name="Trazado 171" d="M816.375,740.51a1.909,1.909,0,1,0-1.347-.559,1.9,1.9,0,0,0,1.347.559" transform="translate(-767.652 -653.109)" fill="#fff"/>
      <path id="Trazado_172" data-name="Trazado 172" d="M781.256,771.788a1.908,1.908,0,1,0,1.35.559,1.9,1.9,0,0,0-1.35-.559" transform="translate(-736.952 -683.789)" fill="#fff"/>
      <path id="Trazado_173" data-name="Trazado 173" d="M746.146,810.709a1.906,1.906,0,1,0-1.35-.556,1.906,1.906,0,0,0,1.35.556" transform="translate(-706.255 -714.482)" fill="#fff"/>
      <path id="Trazado_174" data-name="Trazado 174" d="M711.035,842a1.879,1.879,0,0,0-1.349.559,1.908,1.908,0,1,0,2.7,0,1.884,1.884,0,0,0-1.351-.559" transform="translate(-675.558 -745.176)" fill="#fff"/>
      <path id="Trazado_175" data-name="Trazado 175" d="M675.935,877.111a1.908,1.908,0,1,0,1.348.558,1.893,1.893,0,0,0-1.348-.558" transform="translate(-644.873 -775.87)" fill="#fff"/>
      <path id="Trazado_176" data-name="Trazado 176" d="M851.479,705.375a1.906,1.906,0,1,0-1.349-.557,1.9,1.9,0,0,0,1.349.557" transform="translate(-798.344 -622.391)" fill="#fff"/>
      <path id="Trazado_177" data-name="Trazado 177" d="M1167.452,385.615a1.906,1.906,0,1,0,1.351.558,1.908,1.908,0,0,0-1.351-.558" transform="translate(-1074.592 -346.17)" fill="#fff"/>
      <path id="Trazado_178" data-name="Trazado 178" d="M1342.992,213.874a1.9,1.9,0,1,0-1.346-.56,1.895,1.895,0,0,0,1.346.56" transform="translate(-1228.064 -192.688)" fill="#fff"/>
      <path id="Trazado_179" data-name="Trazado 179" d="M1307.877,248.993a1.9,1.9,0,0,0,1.351-3.253,1.905,1.905,0,0,0-2.7,0,1.9,1.9,0,0,0,1.346,3.253" transform="translate(-1197.362 -223.392)" fill="#fff"/>
      <path id="Trazado_180" data-name="Trazado 180" d="M1272.771,280.28a1.882,1.882,0,0,0-1.35.559,1.91,1.91,0,1,0,1.35-.559" transform="translate(-1166.665 -254.079)" fill="#fff"/>
      <path id="Trazado_181" data-name="Trazado 181" d="M1237.669,319.217a1.88,1.88,0,0,0,1.342-.559,1.9,1.9,0,1,0-1.342.559" transform="translate(-1135.976 -284.789)" fill="#fff"/>
      <path id="Trazado_182" data-name="Trazado 182" d="M1202.549,350.495a1.907,1.907,0,1,0,1.351,3.255,1.906,1.906,0,0,0-1.351-3.255" transform="translate(-1105.275 -315.466)" fill="#fff"/>
      <path id="Trazado_183" data-name="Trazado 183" d="M757.161,439.06a1.909,1.909,0,0,0-.734,3.672,1.883,1.883,0,0,0,.734.144,1.9,1.9,0,0,0,1.764-1.178,1.926,1.926,0,0,0,0-1.458,1.929,1.929,0,0,0-1.764-1.181" transform="translate(-715.882 -392.896)" fill="#fff"/>
      <path id="Trazado_184" data-name="Trazado 184" d="M712.012,420.218a1.834,1.834,0,0,0-.727-.149,1.908,1.908,0,0,0-.734,3.671,1.948,1.948,0,0,0,.734.145,1.9,1.9,0,0,0,1.76-1.174,1.906,1.906,0,0,0-1.033-2.492" transform="translate(-675.774 -376.292)" fill="#fff"/>
      <path id="Trazado_185" data-name="Trazado 185" d="M666.136,401.207a1.906,1.906,0,1,0-1.46,3.522,1.865,1.865,0,0,0,.728.148,1.908,1.908,0,0,0,.732-3.67" transform="translate(-635.662 -359.672)" fill="#fff"/>
      <path id="Trazado_186" data-name="Trazado 186" d="M620.292,382.21a1.907,1.907,0,1,0-1.462,3.523,1.847,1.847,0,0,0,.73.148,1.893,1.893,0,0,0,1.758-1.179,1.843,1.843,0,0,0,0-1.457,1.9,1.9,0,0,0-1.027-1.034" transform="translate(-595.583 -343.065)" fill="#fff"/>
      <path id="Trazado_187" data-name="Trazado 187" d="M572.941,366.751a1.913,1.913,0,0,0,2.491-1.033,1.911,1.911,0,0,0-1.031-2.492,1.908,1.908,0,0,0-2.493,2.492,1.914,1.914,0,0,0,1.034,1.033" transform="translate(-555.463 -326.469)" fill="#fff"/>
      <path id="Trazado_188" data-name="Trazado 188" d="M801.263,459.253a1.909,1.909,0,0,0,1.035,2.492,1.875,1.875,0,0,0,.73.145,1.909,1.909,0,0,0,.731-3.67,1.944,1.944,0,0,0-.731-.146,1.908,1.908,0,0,0-1.764,1.178" transform="translate(-755.981 -409.52)" fill="#fff"/>
      <path id="Trazado_189" data-name="Trazado 189" d="M1217.638,631.726a1.916,1.916,0,0,0-1.036-2.492,1.869,1.869,0,0,0-.728-.145,1.907,1.907,0,0,0-.73,3.668,1.864,1.864,0,0,0,.73.148,1.907,1.907,0,0,0,1.764-1.178" transform="translate(-1116.923 -559.031)" fill="#fff"/>
      <path id="Trazado_190" data-name="Trazado 190" d="M1445.953,724.242a1.908,1.908,0,1,0,1.034,1.034,1.893,1.893,0,0,0-1.034-1.034" transform="translate(-1317.437 -642.096)" fill="#fff"/>
      <path id="Trazado_191" data-name="Trazado 191" d="M1398.621,708.757a1.9,1.9,0,0,0,2.494-1.031,1.917,1.917,0,0,0-1.034-2.493,1.863,1.863,0,0,0-.729-.144,1.9,1.9,0,0,0-1.763,1.181,1.9,1.9,0,0,0,1.031,2.487" transform="translate(-1277.331 -625.477)" fill="#fff"/>
      <path id="Trazado_192" data-name="Trazado 192" d="M1352.771,689.749a1.907,1.907,0,1,0,1.463-3.523,1.848,1.848,0,0,0-.728-.148,1.91,1.91,0,0,0-.735,3.671" transform="translate(-1237.251 -608.856)" fill="#fff"/>
      <path id="Trazado_193" data-name="Trazado 193" d="M1306.893,670.754a1.956,1.956,0,0,0,.731.143,1.908,1.908,0,1,0-1.766-2.638,1.954,1.954,0,0,0,0,1.462,1.907,1.907,0,0,0,1.035,1.033" transform="translate(-1197.138 -592.248)" fill="#fff"/>
      <path id="Trazado_194" data-name="Trazado 194" d="M1261.742,651.906a1.908,1.908,0,0,0,.73-3.671,1.883,1.883,0,0,0-.729-.144,1.908,1.908,0,0,0,0,3.815" transform="translate(-1157.025 -575.645)" fill="#fff"/>
      <path id="Trazado_195" data-name="Trazado 195" d="M904.219,799.56a1.962,1.962,0,0,0,.732.145,1.9,1.9,0,0,0,1.762-1.181,1.862,1.862,0,0,0,0-1.458,1.908,1.908,0,1,0-2.494,2.493" transform="translate(-845.093 -704.862)" fill="#fff"/>
      <path id="Trazado_196" data-name="Trazado 196" d="M886.677,841.89a1.908,1.908,0,0,0-2.49,1.033,1.908,1.908,0,0,0,1.036,2.494,1.856,1.856,0,0,0,.725.144,1.908,1.908,0,0,0,.73-3.671" transform="translate(-828.479 -744.952)" fill="#fff"/>
      <path id="Trazado_197" data-name="Trazado 197" d="M867.677,887.764a1.91,1.91,0,0,0-2.491,1.032,1.852,1.852,0,0,0,0,1.461,1.881,1.881,0,0,0,1.027,1.032,1.908,1.908,0,1,0,1.465-3.524" transform="translate(-811.863 -785.058)" fill="#fff"/>
      <path id="Trazado_198" data-name="Trazado 198" d="M848.7,933.615a1.931,1.931,0,0,0-.73-.148,1.9,1.9,0,0,0-1.762,1.181,1.916,1.916,0,0,0,0,1.458,1.9,1.9,0,0,0,1.031,1.033,1.863,1.863,0,0,0,.731.147,1.909,1.909,0,0,0,.73-3.671" transform="translate(-795.28 -825.14)" fill="#fff"/>
      <path id="Trazado_199" data-name="Trazado 199" d="M829.665,979.49a1.907,1.907,0,1,0-1.46,3.523,1.907,1.907,0,0,0,2.491-2.491,1.893,1.893,0,0,0-1.032-1.031" transform="translate(-778.63 -865.247)" fill="#fff"/>
      <path id="Trazado_200" data-name="Trazado 200" d="M925.717,752.64a1.91,1.91,0,0,0-1.03-2.491,1.978,1.978,0,0,0-.731-.144,1.908,1.908,0,0,0-.732,3.67,1.968,1.968,0,0,0,.73.146,1.9,1.9,0,0,0,1.763-1.181" transform="translate(-861.709 -664.745)" fill="#fff"/>
      <path id="Trazado_201" data-name="Trazado 201" d="M904.94,291.284a1.911,1.911,0,0,0-1.763,2.64,1.915,1.915,0,0,0,1.765,1.178,1.909,1.909,0,0,0,0-3.819" transform="translate(-845.082 -263.699)" fill="#fff"/>
      <path id="Trazado_202" data-name="Trazado 202" d="M884.2,248.057a1.906,1.906,0,0,0,1.76,1.178,1.869,1.869,0,0,0,.73-.147,1.907,1.907,0,0,0-.73-3.671,1.857,1.857,0,0,0-.725.145,1.911,1.911,0,0,0-1.036,2.494" transform="translate(-828.49 -223.6)" fill="#fff"/>
      <path id="Trazado_203" data-name="Trazado 203" d="M865.207,202.183a1.908,1.908,0,0,0,2.491,1.029,1.908,1.908,0,0,0-.731-3.669,1.947,1.947,0,0,0-.734.146,1.909,1.909,0,0,0-1.027,2.494" transform="translate(-811.885 -183.493)" fill="#fff"/>
      <path id="Trazado_204" data-name="Trazado 204" d="M846.2,156.307a1.912,1.912,0,1,0,1.031-2.491,1.893,1.893,0,0,0-1.031,2.491" transform="translate(-795.269 -143.386)" fill="#fff"/>
      <path id="Trazado_205" data-name="Trazado 205" d="M828.952,111.625a2.006,2.006,0,0,0,.731-.143,1.909,1.909,0,0,0-.732-3.672,1.87,1.87,0,0,0-.73.146,1.907,1.907,0,0,0,.731,3.669" transform="translate(-778.648 -103.294)" fill="#fff"/>
      <path id="Trazado_206" data-name="Trazado 206" d="M923.949,337.146a1.91,1.91,0,0,0-1.759,2.639,1.9,1.9,0,0,0,1.76,1.181,1.882,1.882,0,0,0,.731-.149,1.909,1.909,0,0,0-.733-3.671" transform="translate(-861.703 -303.795)" fill="#fff"/>
      <path id="Trazado_207" data-name="Trazado 207" d="M1094.972,753.821h0a1.917,1.917,0,0,0,1.76-1.177,1.909,1.909,0,0,0-1.76-2.639,1.938,1.938,0,0,0-.732.144,1.909,1.909,0,0,0,.733,3.672" transform="translate(-1011.222 -664.745)" fill="#fff"/>
      <path id="Trazado_208" data-name="Trazado 208" d="M1189.943,979.353a1.873,1.873,0,0,0-.731.146,1.9,1.9,0,0,0-1.031,1.031,1.868,1.868,0,0,0,0,1.461,1.907,1.907,0,1,0,1.761-2.638" transform="translate(-1094.25 -865.257)" fill="#fff"/>
      <path id="Trazado_209" data-name="Trazado 209" d="M1172.719,934.637a1.907,1.907,0,1,0-1.762,2.637,1.943,1.943,0,0,0,.73-.143,1.912,1.912,0,0,0,1.032-2.494" transform="translate(-1077.654 -825.13)" fill="#fff"/>
      <path id="Trazado_210" data-name="Trazado 210" d="M1153.72,888.8a1.91,1.91,0,0,0-1.769-1.176,1.865,1.865,0,0,0-.727.144,1.909,1.909,0,0,0,.727,3.671,1.882,1.882,0,0,0,.736-.147,1.912,1.912,0,0,0,1.033-2.492" transform="translate(-1061.04 -785.058)" fill="#fff"/>
      <path id="Trazado_211" data-name="Trazado 211" d="M1134.729,844.383a1.877,1.877,0,0,0,0-1.457,1.9,1.9,0,0,0-1.762-1.179,1.939,1.939,0,0,0-.735.144,1.909,1.909,0,1,0,2.5,2.492" transform="translate(-1044.44 -744.952)" fill="#fff"/>
      <path id="Trazado_212" data-name="Trazado 212" d="M1113.961,799.706h0a1.909,1.909,0,1,0-1.761-1.181,1.919,1.919,0,0,0,1.761,1.181" transform="translate(-1027.826 -704.862)" fill="#fff"/>
      <path id="Trazado_213" data-name="Trazado 213" d="M757.137,651.906a1.937,1.937,0,0,0,.73-.145,1.909,1.909,0,1,0-2.5-2.491,1.87,1.87,0,0,0,0,1.457,1.908,1.908,0,0,0,1.766,1.18" transform="translate(-715.859 -575.645)" fill="#fff"/>
      <path id="Trazado_214" data-name="Trazado 214" d="M713.047,668.26a1.9,1.9,0,0,0-1.762-1.178,2.033,2.033,0,0,0-.735.144,1.919,1.919,0,0,0-1.029,1.033,1.91,1.91,0,0,0,2.491,2.495,1.911,1.911,0,0,0,1.034-2.495" transform="translate(-675.774 -592.248)" fill="#fff"/>
      <path id="Trazado_215" data-name="Trazado 215" d="M663.664,688.716a1.908,1.908,0,1,0,1.763-2.638,1.827,1.827,0,0,0-.728.148,1.912,1.912,0,0,0-1.036,2.49" transform="translate(-635.685 -608.856)" fill="#fff"/>
      <path id="Trazado_216" data-name="Trazado 216" d="M619.534,705.08a1.865,1.865,0,0,0-.73.146,1.9,1.9,0,1,0,.73-.146" transform="translate(-595.558 -625.469)" fill="#fff"/>
      <path id="Trazado_217" data-name="Trazado 217" d="M573.671,724.1a1.9,1.9,0,0,0-1.76,1.177,1.883,1.883,0,0,0,0,1.459,1.905,1.905,0,0,0,1.76,1.178,1.844,1.844,0,0,0,.732-.149,1.906,1.906,0,0,0-.732-3.666" transform="translate(-555.464 -642.096)" fill="#fff"/>
      <path id="Trazado_218" data-name="Trazado 218" d="M803.76,632.756a1.9,1.9,0,1,0-.731.148,1.907,1.907,0,0,0,.731-.148" transform="translate(-755.984 -559.031)" fill="#fff"/>
      <path id="Trazado_219" data-name="Trazado 219" d="M966.2,762.738a1.907,1.907,0,1,0,1.493,2.244,1.915,1.915,0,0,0-1.493-2.244" transform="translate(-898.315 -675.845)" fill="#fff"/>
      <path id="Trazado_220" data-name="Trazado 220" d="M917.709,1006.206a1.907,1.907,0,1,0,1.5,2.242,1.912,1.912,0,0,0-1.5-2.242" transform="translate(-855.918 -888.702)" fill="#fff"/>
      <path id="Trazado_221" data-name="Trazado 221" d="M927.408,957.515a1.909,1.909,0,1,0,1.5,2.242,1.915,1.915,0,0,0-1.5-2.242" transform="translate(-864.397 -846.133)" fill="#fff"/>
      <path id="Trazado_222" data-name="Trazado 222" d="M937.115,908.818a1.908,1.908,0,1,0,1.5,2.242,1.909,1.909,0,0,0-1.5-2.242" transform="translate(-872.889 -803.559)" fill="#fff"/>
      <path id="Trazado_223" data-name="Trazado 223" d="M946.8,860.114a1.908,1.908,0,1,0,1.493,2.247,1.909,1.909,0,0,0-1.493-2.247" transform="translate(-881.354 -760.977)" fill="#fff"/>
      <path id="Trazado_224" data-name="Trazado 224" d="M956.5,811.435a1.908,1.908,0,1,0,1.5,2.245,1.909,1.909,0,0,0-1.5-2.245" transform="translate(-889.837 -718.419)" fill="#fff"/>
      <path id="Trazado_225" data-name="Trazado 225" d="M739.769,491.782a1.908,1.908,0,1,0,2.242-1.5,1.909,1.909,0,0,0-2.242,1.5" transform="translate(-702.315 -437.647)" fill="#fff"/>
      <path id="Trazado_226" data-name="Trazado 226" d="M691.076,482.089a1.908,1.908,0,1,0,2.242-1.5,1.9,1.9,0,0,0-2.242,1.5" transform="translate(-659.743 -429.171)" fill="#fff"/>
      <path id="Trazado_227" data-name="Trazado 227" d="M646.12,473.137a1.907,1.907,0,1,0-2.245,1.5,1.909,1.909,0,0,0,2.245-1.5" transform="translate(-617.17 -420.694)" fill="#fff"/>
      <path id="Trazado_228" data-name="Trazado 228" d="M593.688,462.7a1.906,1.906,0,1,0,2.245-1.5,1.915,1.915,0,0,0-2.245,1.5" transform="translate(-574.6 -412.226)" fill="#fff"/>
      <path id="Trazado_229" data-name="Trazado 229" d="M546.475,455.245a1.908,1.908,0,1,0-1.5-2.242,1.907,1.907,0,0,0,1.5,2.242" transform="translate(-532.01 -403.742)" fill="#fff"/>
      <path id="Trazado_230" data-name="Trazado 230" d="M790.695,499.978a1.909,1.909,0,1,0,1.5,2.244,1.914,1.914,0,0,0-1.5-2.244" transform="translate(-744.875 -446.123)" fill="#fff"/>
      <path id="Trazado_231" data-name="Trazado 231" d="M1228.218,591a1.907,1.907,0,1,0-1.5-2.242,1.911,1.911,0,0,0,1.5,2.242" transform="translate(-1128.041 -522.426)" fill="#fff"/>
      <path id="Trazado_232" data-name="Trazado 232" d="M1472.425,635.736a1.907,1.907,0,1,0,1.492,2.241,1.91,1.91,0,0,0-1.492-2.241" transform="translate(-1340.886 -564.81)" fill="#fff"/>
      <path id="Trazado_233" data-name="Trazado 233" d="M1425.235,628.287a1.908,1.908,0,1,0-2.247,1.5,1.908,1.908,0,0,0,2.247-1.5" transform="translate(-1298.325 -556.339)" fill="#fff"/>
      <path id="Trazado_234" data-name="Trazado 234" d="M1376.54,618.567a1.906,1.906,0,1,0-2.242,1.5,1.913,1.913,0,0,0,2.242-1.5" transform="translate(-1255.753 -547.837)" fill="#fff"/>
      <path id="Trazado_235" data-name="Trazado 235" d="M1327.846,608.887a1.907,1.907,0,1,0-2.246,1.5,1.911,1.911,0,0,0,2.246-1.5" transform="translate(-1213.182 -539.376)" fill="#fff"/>
      <path id="Trazado_236" data-name="Trazado 236" d="M1279.129,599.19a1.908,1.908,0,1,0-2.243,1.5,1.909,1.909,0,0,0,2.243-1.5" transform="translate(-1170.589 -530.897)" fill="#fff"/>
      <path id="Trazado_237" data-name="Trazado 237" d="M858.183,316.525a1.886,1.886,0,0,0-1.434.285,1.916,1.916,0,0,0-.527,2.645,1.908,1.908,0,1,0,1.961-2.93" transform="translate(-803.881 -285.734)" fill="#fff"/>
      <path id="Trazado_238" data-name="Trazado 238" d="M830.586,275.234a1.908,1.908,0,1,0-.751,3.741,1.908,1.908,0,0,0,.751-3.741" transform="translate(-779.75 -249.635)" fill="#fff"/>
      <path id="Trazado_239" data-name="Trazado 239" d="M801.03,236.883a1.913,1.913,0,0,0,1.215.812,1.911,1.911,0,1,0-1.215-.812" transform="translate(-755.622 -213.543)" fill="#fff"/>
      <path id="Trazado_240" data-name="Trazado 240" d="M773.479,195.6a1.912,1.912,0,0,0,2.645.528,1.907,1.907,0,1,0-2.645-.528" transform="translate(-731.538 -177.453)" fill="#fff"/>
      <path id="Trazado_241" data-name="Trazado 241" d="M747.118,155.114h0a1.906,1.906,0,1,0-.686-3.454,1.906,1.906,0,0,0,.685,3.454" transform="translate(-707.432 -141.348)" fill="#fff"/>
      <path id="Trazado_242" data-name="Trazado 242" d="M884.305,358.114a1.909,1.909,0,0,0-.527,2.647,1.911,1.911,0,0,0,2.642.527,1.907,1.907,0,0,0,.53-2.647,1.916,1.916,0,0,0-2.646-.527" transform="translate(-827.969 -321.848)" fill="#fff"/>
      <path id="Trazado_243" data-name="Trazado 243" d="M1134.615,732.869a1.907,1.907,0,0,0-.687-3.456,1.907,1.907,0,1,0,.687,3.456" transform="translate(-1044.957 -646.711)" fill="#fff"/>
      <path id="Trazado_244" data-name="Trazado 244" d="M1271.792,935.847a1.887,1.887,0,0,0-1.428.284,1.9,1.9,0,0,0-.531,2.648,1.867,1.867,0,0,0,1.215.809,1.907,1.907,0,0,0,.744-3.74" transform="translate(-1165.484 -827.189)" fill="#fff"/>
      <path id="Trazado_245" data-name="Trazado 245" d="M1245.45,895.374a1.908,1.908,0,0,0-2.648-.524,1.908,1.908,0,0,0-.525,2.645,1.916,1.916,0,0,0,2.648.528,1.92,1.92,0,0,0,.525-2.649" transform="translate(-1141.395 -791.095)" fill="#fff"/>
      <path id="Trazado_246" data-name="Trazado 246" d="M1217.872,854.091a1.909,1.909,0,1,0-1.962,2.93,1.878,1.878,0,0,0,1.429-.286,1.912,1.912,0,0,0,.533-2.644" transform="translate(-1117.28 -755.003)" fill="#fff"/>
      <path id="Trazado_247" data-name="Trazado 247" d="M1188.324,815.736a1.912,1.912,0,1,0-1.216-.813,1.9,1.9,0,0,0,1.216.813" transform="translate(-1093.161 -718.909)" fill="#fff"/>
      <path id="Trazado_248" data-name="Trazado 248" d="M1160.752,774.436a1.907,1.907,0,1,0-.686-3.456,1.858,1.858,0,0,0-.81,1.214,1.9,1.9,0,0,0,1.5,2.241" transform="translate(-1069.057 -682.802)" fill="#fff"/>
      <path id="Trazado_249" data-name="Trazado 249" d="M783.96,696.1a1.9,1.9,0,1,0-.526,2.643,1.882,1.882,0,0,0,.812-1.211,1.9,1.9,0,0,0-.286-1.432" transform="translate(-737.928 -616.875)" fill="#fff"/>
      <path id="Trazado_250" data-name="Trazado 250" d="M742.15,726.305a1.909,1.909,0,0,0-.686-3.457,1.875,1.875,0,0,0-1.434.286,1.906,1.906,0,0,0-.527,2.645,1.877,1.877,0,0,0,1.214.813,1.926,1.926,0,0,0,1.433-.287" transform="translate(-701.833 -640.97)" fill="#fff"/>
      <path id="Trazado_251" data-name="Trazado 251" d="M699.411,754.17a1.884,1.884,0,0,0,1.431-.282,1.907,1.907,0,1,0-2.642-.526,1.874,1.874,0,0,0,1.211.808" transform="translate(-665.721 -665.085)" fill="#fff"/>
      <path id="Trazado_252" data-name="Trazado 252" d="M660.1,778.822a1.907,1.907,0,0,0-2.646-.527,1.908,1.908,0,1,0,2.646.527" transform="translate(-629.645 -689.198)" fill="#fff"/>
      <path id="Trazado_253" data-name="Trazado 253" d="M617.608,805.583a1.908,1.908,0,1,0,1.208.81,1.866,1.866,0,0,0-1.208-.81" transform="translate(-593.552 -713.303)" fill="#fff"/>
      <path id="Trazado_254" data-name="Trazado 254" d="M822.093,670.634a1.876,1.876,0,0,0,1.211.81,1.905,1.905,0,0,0,1.958-2.928,1.9,1.9,0,0,0-2.641-.528,1.907,1.907,0,0,0-.528,2.647" transform="translate(-774.039 -592.759)" fill="#fff"/>
      <path id="Trazado_255" data-name="Trazado 255" d="M783.492,392.136a1.9,1.9,0,0,0-2.647.523,1.908,1.908,0,0,0,1.215,2.931,1.905,1.905,0,0,0,1.432-3.454" transform="translate(-737.981 -351.587)" fill="#fff"/>
      <path id="Trazado_256" data-name="Trazado 256" d="M739.285,366.5a1.854,1.854,0,0,0,.811,1.214,1.907,1.907,0,0,0,2.119-3.172,1.878,1.878,0,0,0-.689-.286,1.91,1.91,0,0,0-2.241,2.244" transform="translate(-701.891 -327.46)" fill="#fff"/>
      <path id="Trazado_257" data-name="Trazado 257" d="M700.932,336.955a1.859,1.859,0,0,0-.687-.288,1.908,1.908,0,0,0-1.433,3.457,1.948,1.948,0,0,0,.687.286,1.906,1.906,0,0,0,1.433-3.455" transform="translate(-665.798 -303.344)" fill="#fff"/>
      <path id="Trazado_258" data-name="Trazado 258" d="M657.554,312.549a1.87,1.87,0,0,0,.686.283,1.9,1.9,0,0,0,2.241-2.244,1.882,1.882,0,0,0-.809-1.213,1.861,1.861,0,0,0-.687-.281,1.891,1.891,0,0,0-1.958.808,1.912,1.912,0,0,0,.527,2.647" transform="translate(-629.728 -279.237)" fill="#fff"/>
      <path id="Trazado_259" data-name="Trazado 259" d="M616.25,284.938a1.8,1.8,0,0,0,.69.282,1.907,1.907,0,1,0-1.214-2.929,1.874,1.874,0,0,0-.285,1.433,1.9,1.9,0,0,0,.808,1.213" transform="translate(-593.617 -255.096)" fill="#fff"/>
      <path id="Trazado_260" data-name="Trazado 260" d="M824.767,419.741a1.908,1.908,0,0,0-2.119,3.174,1.87,1.87,0,0,0,.691.283,1.906,1.906,0,0,0,1.428-3.457" transform="translate(-774.066 -375.725)" fill="#fff"/>
      <path id="Trazado_261" data-name="Trazado 261" d="M1194.151,671.227a2.009,2.009,0,0,0,.69.286,1.909,1.909,0,0,0,1.434-3.458,1.968,1.968,0,0,0-.693-.288,1.91,1.91,0,0,0-1.431,3.461" transform="translate(-1098.86 -592.815)" fill="#fff"/>
      <path id="Trazado_262" data-name="Trazado 262" d="M1402.64,806.031a1.947,1.947,0,0,0-.683-.283,1.908,1.908,0,0,0-1.436,3.457,2,2,0,0,0,.687.287,1.911,1.911,0,0,0,1.959-.814,1.88,1.88,0,0,0,.286-1.429,1.9,1.9,0,0,0-.812-1.217" transform="translate(-1279.28 -713.447)" fill="#fff"/>
      <path id="Trazado_263" data-name="Trazado 263" d="M1361.347,778.435a1.879,1.879,0,0,0-.687-.289,1.906,1.906,0,0,0-1.434,3.456,1.817,1.817,0,0,0,.686.284,1.906,1.906,0,0,0,1.435-3.452" transform="translate(-1243.174 -689.315)" fill="#fff"/>
      <path id="Trazado_264" data-name="Trazado 264" d="M1317.978,754.02a1.84,1.84,0,0,0,.683.286,1.921,1.921,0,1,0-.683-.286" transform="translate(-1207.114 -665.202)" fill="#fff"/>
      <path id="Trazado_265" data-name="Trazado 265" d="M1278.819,723.244a1.981,1.981,0,0,0-.686-.286,1.9,1.9,0,0,0-2.244,2.242,1.911,1.911,0,0,0,1.495,1.5,1.908,1.908,0,0,0,1.436-3.457" transform="translate(-1171.028 -641.067)" fill="#fff"/>
      <path id="Trazado_266" data-name="Trazado 266" d="M1235.406,698.836a1.861,1.861,0,0,0,.686.287,1.907,1.907,0,0,0,1.431-3.458,1.874,1.874,0,0,0-.684-.283,1.9,1.9,0,0,0-1.433,3.455" transform="translate(-1134.924 -616.957)" fill="#fff"/>
      <path id="Trazado_267" data-name="Trazado 267" d="M856.658,774.1a1.846,1.846,0,0,0,.683.286,1.913,1.913,0,1,0-.683-.286" transform="translate(-803.799 -682.761)" fill="#fff"/>
      <path id="Trazado_268" data-name="Trazado 268" d="M829.055,815.372a1.951,1.951,0,0,0,.687.287,1.908,1.908,0,0,0,1.433-3.458,1.858,1.858,0,0,0-.687-.284,1.9,1.9,0,0,0-1.963.809,1.934,1.934,0,0,0-.28,1.434,1.9,1.9,0,0,0,.809,1.211" transform="translate(-779.667 -718.84)" fill="#fff"/>
      <path id="Trazado_269" data-name="Trazado 269" d="M803.561,853.472a1.926,1.926,0,0,0-.689-.285,1.912,1.912,0,0,0-2.246,2.244,1.934,1.934,0,0,0,.809,1.214,2.013,2.013,0,0,0,.693.284,1.907,1.907,0,0,0,1.434-3.457" transform="translate(-755.521 -754.922)" fill="#fff"/>
      <path id="Trazado_270" data-name="Trazado 270" d="M775.98,894.744a1.9,1.9,0,0,0-2.647.525,1.9,1.9,0,0,0-.284,1.434,1.853,1.853,0,0,0,.813,1.211,1.821,1.821,0,0,0,.686.286,1.906,1.906,0,0,0,1.431-3.456" transform="translate(-731.411 -791.003)" fill="#fff"/>
      <path id="Trazado_271" data-name="Trazado 271" d="M748.386,936.036a1.817,1.817,0,0,0-.683-.284,1.9,1.9,0,0,0-1.958.809,1.909,1.909,0,0,0,.522,2.649,1.957,1.957,0,0,0,.692.282,1.906,1.906,0,0,0,1.427-3.456" transform="translate(-707.288 -827.105)" fill="#fff"/>
      <path id="Trazado_272" data-name="Trazado 272" d="M884.234,732.812a1.909,1.909,0,0,0,2.121-3.175,1.948,1.948,0,0,0-.686-.282,1.908,1.908,0,0,0-1.435,3.457" transform="translate(-827.908 -646.659)" fill="#fff"/>
      <path id="Trazado_273" data-name="Trazado 273" d="M955.855,275.775a1.908,1.908,0,0,0,0,3.744,2.021,2.021,0,0,0,.746,0,1.908,1.908,0,1,0-.742-3.744" transform="translate(-889.92 -250.108)" fill="#fff"/>
      <path id="Trazado_274" data-name="Trazado 274" d="M946.189,227.073a1.907,1.907,0,0,0,0,3.743,1.858,1.858,0,0,0,.738,0,1.907,1.907,0,0,0,0-3.743,1.84,1.84,0,0,0-.738,0" transform="translate(-881.468 -207.529)" fill="#fff"/>
      <path id="Trazado_275" data-name="Trazado 275" d="M936.512,178.384a1.911,1.911,0,0,0-1.5,2.244,1.906,1.906,0,1,0,2.242-2.244,1.984,1.984,0,0,0-.747,0" transform="translate(-873.014 -164.964)" fill="#fff"/>
      <path id="Trazado_276" data-name="Trazado 276" d="M926.822,129.682a1.908,1.908,0,0,0,0,3.743,1.885,1.885,0,0,0,.743,0,1.908,1.908,0,0,0,0-3.743,1.964,1.964,0,0,0-.743,0" transform="translate(-864.538 -122.385)" fill="#fff"/>
      <path id="Trazado_277" data-name="Trazado 277" d="M917.145,84.73a2.094,2.094,0,0,0,.747,0,1.9,1.9,0,1,0-.747,0" transform="translate(-856.082 -79.809)" fill="#fff"/>
      <path id="Trazado_278" data-name="Trazado 278" d="M965.526,324.49a1.909,1.909,0,0,0-1.5,2.242,1.906,1.906,0,0,0,1.5,1.5,1.8,1.8,0,0,0,.737,0,1.908,1.908,0,0,0,0-3.745,2.014,2.014,0,0,0-.737,0" transform="translate(-898.371 -292.699)" fill="#fff"/>
      <path id="Trazado_279" data-name="Trazado 279" d="M1052.626,766.506a1.928,1.928,0,0,0,.743,0,1.908,1.908,0,0,0-.743-3.743,1.908,1.908,0,0,0,0,3.743Z" transform="translate(-974.524 -675.867)" fill="#fff"/>
      <path id="Trazado_280" data-name="Trazado 280" d="M1101.754,1006.237a1.947,1.947,0,0,0-.744,0,1.9,1.9,0,0,0-1.214.812,1.927,1.927,0,0,0-.286,1.433,1.9,1.9,0,0,0,1.5,1.5,1.926,1.926,0,0,0,.744,0,1.909,1.909,0,0,0,0-3.742" transform="translate(-1016.827 -888.73)" fill="#fff"/>
      <path id="Trazado_281" data-name="Trazado 281" d="M1092.075,961.3a1.91,1.91,0,0,0,0-3.745,2.01,2.01,0,0,0-.741,0,1.9,1.9,0,0,0-1.213.811,1.876,1.876,0,0,0-.287,1.435,1.907,1.907,0,0,0,2.24,1.5" transform="translate(-1008.365 -846.165)" fill="#fff"/>
      <path id="Trazado_282" data-name="Trazado 282" d="M1081.664,912.584a1.849,1.849,0,0,0,.746,0,1.907,1.907,0,0,0,0-3.739,1.742,1.742,0,0,0-.746,0,1.906,1.906,0,0,0,0,3.739" transform="translate(-999.913 -803.579)" fill="#fff"/>
      <path id="Trazado_283" data-name="Trazado 283" d="M1072.72,863.889a1.9,1.9,0,0,0,1.214-.81,1.879,1.879,0,0,0,.287-1.432,1.9,1.9,0,0,0-1.5-1.5,1.95,1.95,0,0,0-.741,0,1.907,1.907,0,0,0,0,3.743,1.863,1.863,0,0,0,.741,0" transform="translate(-991.443 -761.007)" fill="#fff"/>
      <path id="Trazado_284" data-name="Trazado 284" d="M1062.273,815.209a1.909,1.909,0,1,0,.744-3.745,1.967,1.967,0,0,0-.744,0,1.909,1.909,0,0,0,0,3.745Z" transform="translate(-982.956 -718.446)" fill="#fff"/>
      <path id="Trazado_285" data-name="Trazado 285" d="M741.238,600.579a1.88,1.88,0,0,0,.746,0,1.907,1.907,0,0,0,0-3.739,1.844,1.844,0,0,0-.746,0,1.894,1.894,0,0,0-1.217.811,1.9,1.9,0,0,0,1.217,2.928" transform="translate(-702.287 -530.805)" fill="#fff"/>
      <path id="Trazado_286" data-name="Trazado 286" d="M692.544,610.256a1.87,1.87,0,0,0,.744,0,1.908,1.908,0,0,0,0-3.743,1.81,1.81,0,0,0-.744,0,1.908,1.908,0,0,0,0,3.743" transform="translate(-659.716 -539.261)" fill="#fff"/>
      <path id="Trazado_287" data-name="Trazado 287" d="M644.578,619.942a1.908,1.908,0,0,0,0-3.742,1.908,1.908,0,1,0-.744,3.742,1.888,1.888,0,0,0,.744,0" transform="translate(-617.129 -547.732)" fill="#fff"/>
      <path id="Trazado_288" data-name="Trazado 288" d="M597.393,627.363a1.905,1.905,0,0,0-1.5-1.5,1.9,1.9,0,0,0-1.956.811,1.906,1.906,0,0,0,1.214,2.929,1.826,1.826,0,0,0,.742,0,1.909,1.909,0,0,0,1.5-2.241" transform="translate(-574.568 -556.18)" fill="#fff"/>
      <path id="Trazado_289" data-name="Trazado 289" d="M548.675,637.04a1.907,1.907,0,1,0-2.24,2.247,2.029,2.029,0,0,0,.746,0,1.9,1.9,0,0,0,1.495-2.245" transform="translate(-531.976 -564.642)" fill="#fff"/>
      <path id="Trazado_290" data-name="Trazado 290" d="M789.941,590.905a1.907,1.907,0,0,0,2.243-2.246,1.9,1.9,0,0,0-1.5-1.5,1.982,1.982,0,0,0-.747,0,1.918,1.918,0,0,0-1.5,2.245,1.907,1.907,0,0,0,1.5,1.5" transform="translate(-744.871 -522.344)" fill="#fff"/>
      <path id="Trazado_291" data-name="Trazado 291" d="M584.05,1226.593c.795,0,1.193.211,1.193,1.141v1.35c0,.9-.266,1.137-1.193,1.137h-5.988v-3.629Zm-8.111,9.591h2.123v-4.4h3.074l4.478,4.4h2.837l-4.955-4.4h1.482c1.648,0,2.356-.609,2.356-2.149v-2.517c0-1.563-.708-2.173-2.356-2.173h-9.038Zm-14.434-9.565h9.381v7.87H561.5Zm-2.12,1.008v5.909c0,2.091.608,2.649,2.757,2.649h8.107c2.121,0,2.756-.581,2.756-2.649v-5.909c0-2.039-.605-2.677-2.756-2.677h-8.107c-2.149,0-2.757.637-2.757,2.677m-12.371,3.5h6.518c.9,0,1.274.289,1.274,1.273v.872c0,.98-.346,1.271-1.274,1.271h-6.518Zm7.71-2.543c0,.795-.372.9-1.192.9h-6.518v-2.892h6.518c.85,0,1.192.185,1.192.928Zm-9.831,7.6h8.775c2.171,0,3.258-.687,3.258-2.2v-1.428a2.026,2.026,0,0,0-2.043-2.175c1.354-.161,1.961-.743,1.961-1.934v-1.3c0-1.533-.741-2.2-2.462-2.2h-9.489Zm-6.145-9.591c.8,0,1.2.211,1.2,1.141v1.35c0,.9-.266,1.137-1.2,1.137h-5.988v-3.629Zm-8.107,9.591h2.119v-4.4h3.076l4.478,4.4h2.834l-4.953-4.4h1.485c1.641,0,2.353-.609,2.353-2.149v-2.517c0-1.563-.712-2.173-2.353-2.173H530.64Zm-16.458,0h2.126l1.432-2.621h7.765l1.455,2.621h2.305l-6.652-11.234h-1.931Zm4.453-4.238,2.975-5.353,2.99,5.353Zm-22.117,4.238H498.8v-6.2h10.787v6.2h2.277v-13.67h-2.277v5.59H498.8v-5.59h-2.278Zm-22.281,0h11.424v-1.643h-9.3v-3.362H481.9v-1.671h-5.541v-2.89h9.2v-1.669H474.238Zm-16.4,0h2.118v-5h8.955v5h2.121v-11.208h-2.121v4.509H459.96v-4.509h-2.118Zm-7.18-11.818h6.28v-1.852H442.133v1.852h6.252v11.818h2.276Z" transform="translate(-442.133 -1077.845)" fill="#fff"/>
      <path id="Trazado_292" data-name="Trazado 292" d="M887.146,1402.72l1.591-3.031,1.6,3.031ZM885,1404.939h.975l.759-1.456h4.007l.759,1.456h1.092l-3.3-5.925h-1.057Zm-4.779-5.124c1.755,0,2.632.518,2.632,2.127,0,1.673-.86,2.171-2.632,2.171h-2.135v-4.3Zm.14-.8H877.1v5.925h3.262a4.162,4.162,0,0,0,2.269-.46,2.933,2.933,0,0,0,1.231-2.537,2.9,2.9,0,0,0-1.231-2.471,4.2,4.2,0,0,0-2.269-.456m-7.327,5.925h.99v-5.925h-.99Zm-4.365-5.16c.437,0,.645.115.645.611v.86c0,.5-.208.609-.645.609h-3.4v-2.081Zm-4.386,5.16h.987v-2.31h1.747l2.411,2.31H870.9l-2.71-2.31h.872c.858,0,1.248-.321,1.248-1.149v-1.318c0-.827-.389-1.147-1.248-1.147h-4.779Zm-6.017-6.558h.594l1.574-1.952h-1Zm-2.093,6.558h5.754v-.815h-4.764v-1.884h2.883v-.783h-2.883v-1.651h4.719v-.793h-5.71Zm-9.577-4.869a2.7,2.7,0,0,0,.406.735l2.356,3.2h.247l2.264-3.3a4.424,4.424,0,0,0,.359-.641c-.023.434-.049.735-.049.872v4h.908v-5.925h-.908l-2.69,3.858-2.881-3.858h-.8v5.925h.837v-4a6.087,6.087,0,0,0-.048-.872" transform="translate(-795.05 -1229.894)" fill="#fff"/>
    </g>
  </g>
</svg>
